<?xml version="1.0" standalone="no"?>
<!DOCTYPE svg PUBLIC "-//W3C//DTD SVG 20010904//EN"
 "http://www.w3.org/TR/2001/REC-SVG-20010904/DTD/svg10.dtd">
<svg version="1.0" xmlns="http://www.w3.org/2000/svg"
 width="700.000000pt" height="700.000000pt" viewBox="0 0 700.000000 700.000000"
 preserveAspectRatio="xMidYMid meet">
<metadata>
Created by potrace 1.11, written by Peter Selinger 2001-2013
</metadata>
<g transform="translate(0.000000,700.000000) scale(0.100000,-0.100000)"
fill="#000000" stroke="none">
<path d="M3205 6439 c-509 -59 -1003 -284 -1365 -622 -344 -322 -605 -784
-696 -1232 -40 -199 -49 -292 -48 -500 0 -203 9 -295 50 -495 49 -235 162
-531 286 -745 93 -159 231 -337 378 -485 270 -271 567 -457 949 -593 91 -32
110 -42 93 -48 -11 -4 -26 -17 -32 -28 -9 -18 -8 -21 10 -21 12 0 36 -11 53
-24 28 -21 56 -31 119 -40 10 -1 42 -23 72 -48 29 -26 70 -58 91 -72 l38 -26
-49 -1 c-238 -4 -344 -32 -754 -202 -256 -106 -298 -118 -440 -126 -208 -11
-335 11 -485 86 l-70 35 30 -32 c66 -71 182 -154 290 -206 153 -74 239 -95
390 -96 253 -2 410 57 736 278 185 125 247 157 326 172 56 10 73 6 73 -15 0
-13 8 -14 40 -9 22 3 40 4 40 2 0 -2 -46 -30 -102 -61 -128 -72 -323 -199
-358 -235 -3 -3 -32 -27 -65 -55 -67 -55 -137 -118 -172 -154 -27 -28 -26 -30
56 -94 l59 -47 73 82 c188 209 418 398 590 485 l49 24 32 -38 c18 -21 53 -60
78 -88 62 -68 59 -65 115 -131 48 -56 124 -143 135 -154 7 -6 135 -153 175
-199 17 -20 51 -58 76 -85 l46 -49 31 19 c39 22 41 47 7 96 -14 20 -25 39 -25
42 0 4 -146 224 -167 251 -26 34 -73 104 -73 109 0 12 89 -68 255 -227 98 -95
133 -123 145 -117 23 14 110 97 110 107 -1 20 -88 98 -245 219 -120 93 -388
264 -415 264 -9 0 -50 39 -50 49 0 17 173 12 225 -7 28 -9 130 -70 228 -135
225 -150 336 -206 497 -251 308 -85 659 9 900 243 33 32 60 61 60 65 0 3 -17
-4 -37 -17 -58 -36 -190 -83 -273 -98 -92 -15 -268 -15 -347 1 -77 16 -223 68
-418 150 -231 98 -337 129 -490 146 -85 9 -265 9 -320 0 -22 -4 -53 -9 -68
-12 -21 -3 -34 2 -52 22 -14 15 -26 33 -26 40 -1 8 -2 20 -3 27 -1 6 2 25 6
42 6 22 4 31 -7 38 -30 16 -5 24 82 25 82 2 114 4 203 18 19 3 51 7 70 9 19 3
46 7 60 10 14 3 34 7 45 9 140 27 380 106 525 174 451 210 839 578 1078 1022
145 269 234 565 268 885 10 93 10 370 0 468 -8 82 -9 86 -25 182 -16 86 -17
92 -40 180 -112 432 -323 805 -636 1121 -290 293 -609 490 -1000 617 -91 30
-276 76 -326 82 -19 2 -50 6 -70 10 -74 12 -119 15 -314 19 -110 2 -236 0
-280 -5z m258 -256 c-2 -214 -1 -203 -10 -201 -14 3 -198 -14 -238 -22 -22 -5
-60 -12 -85 -15 -76 -11 -219 -53 -343 -102 -202 -79 -388 -193 -576 -353
l-85 -72 -140 142 -141 141 40 37 c290 270 627 455 1007 551 64 17 138 33 165
37 26 3 51 8 54 10 3 1 37 6 75 9 38 4 70 8 71 9 2 1 49 3 105 5 l103 2 -2
-178z m278 162 c13 -2 58 -9 99 -15 308 -48 650 -184 923 -367 107 -72 238
-174 301 -235 l30 -28 -45 -47 c-107 -113 -199 -203 -206 -203 -5 0 -28 19
-53 41 -242 220 -595 393 -940 461 -58 11 -62 13 -32 18 42 6 43 22 2 34 -21
6 -48 5 -81 -3 -58 -15 -155 -24 -184 -17 -19 5 -20 13 -18 183 1 98 2 182 2
187 1 7 138 2 202 -9z m-280 -463 c1 -26 1 -262 0 -303 -1 -41 0 -40 -146 -55
-33 -3 -89 -13 -125 -21 -36 -8 -75 -17 -87 -19 -43 -8 -169 -57 -258 -100
-111 -53 -238 -137 -327 -215 -36 -32 -70 -59 -75 -59 -4 0 -64 56 -131 123
l-124 124 74 65 c293 259 646 419 1020 461 166 19 178 19 179 -1z m154 -2
c-17 27 184 0 367 -49 122 -32 279 -91 272 -102 -2 -4 -22 -10 -43 -14 -22 -3
-47 -12 -57 -19 -21 -16 -16 -25 66 -113 30 -32 71 -84 90 -116 36 -58 49 -65
93 -48 21 8 29 5 57 -24 21 -22 30 -39 27 -51 -4 -14 9 -31 50 -64 31 -25 62
-47 70 -50 10 -4 1 -19 -32 -54 l-47 -48 -26 24 c-14 12 -31 28 -37 33 -37 33
-205 145 -273 181 -112 61 -321 131 -437 148 -22 4 -53 8 -70 11 -16 2 -54 7
-84 10 -29 3 -57 7 -60 9 -6 4 -6 104 -2 313 l1 42 40 -14 c23 -8 38 -10 35
-5z m-1673 -379 c136 -136 138 -140 120 -158 -44 -41 -152 -185 -206 -273
-114 -184 -215 -435 -252 -625 -2 -11 -6 -31 -9 -45 -10 -47 -14 -72 -19 -114
-3 -22 -8 -66 -12 -96 -3 -30 -8 -56 -9 -58 -2 -2 -12 2 -24 9 -26 17 -37 5
-23 -26 11 -23 10 -25 -14 -23 -15 2 -29 9 -31 18 -17 53 -26 68 -39 63 -8 -3
-14 1 -14 10 0 27 -17 28 -47 3 -15 -13 -38 -26 -50 -30 -13 -4 -24 -18 -28
-37 -8 -33 -27 -46 -70 -44 l-30 1 -1 82 c-1 144 26 328 81 552 8 33 57 177
71 207 8 17 14 34 14 39 0 24 142 290 206 386 98 145 221 298 240 298 3 0 69
-63 146 -139z m3264 83 c27 -31 54 -62 59 -68 92 -102 230 -316 311 -481 98
-200 177 -440 208 -635 3 -19 8 -46 10 -60 8 -43 14 -102 21 -187 l7 -83 -191
0 -191 0 -1 23 c-8 178 -24 283 -69 455 -78 292 -232 576 -435 801 -16 18 -30
37 -30 41 0 13 228 248 241 249 6 1 33 -24 60 -55z m-509 -127 c53 -44 80 -73
76 -83 -8 -22 -15 -18 -73 44 -143 149 -143 156 -3 39z m-1234 -177 c0 -88 -3
-163 -6 -166 -3 -3 -20 -8 -39 -10 -273 -39 -462 -120 -631 -273 l-39 -35
-121 123 -122 123 60 55 c145 131 408 272 577 309 92 20 175 34 229 40 35 3
66 8 68 10 18 16 25 -35 24 -176z m172 166 c158 -13 313 -57 479 -136 65 -31
194 -107 215 -126 2 -2 -1 -15 -7 -28 -10 -22 -7 -28 28 -58 21 -18 48 -40 59
-48 21 -15 19 -17 -78 -117 -54 -57 -101 -103 -104 -103 -3 0 -39 25 -79 55
-159 120 -392 210 -559 217 -29 1 -43 6 -47 19 -4 10 -6 84 -5 166 1 179 1
175 11 170 4 -3 43 -8 87 -11z m-1368 -272 l122 -127 -63 -81 c-154 -198 -272
-465 -301 -684 -5 -35 -17 -64 -36 -88 -16 -20 -34 -54 -41 -75 -8 -29 -17
-39 -32 -40 -123 -5 -266 -2 -267 6 -12 101 33 365 92 546 57 175 201 442 298
554 14 17 41 50 60 73 18 23 36 42 40 42 3 0 61 -57 128 -126z m2581 -94 c16
-14 51 -45 80 -69 59 -48 72 -46 92 15 6 19 15 34 20 34 10 0 76 -104 113
-177 61 -119 144 -358 162 -463 3 -19 8 -42 10 -50 2 -8 7 -33 10 -55 3 -23 7
-50 9 -61 4 -22 9 -137 7 -166 -1 -16 -17 -18 -180 -18 l-178 0 -2 68 c-1 68
-2 76 -21 168 -6 28 -13 62 -15 76 -10 54 -68 215 -110 305 -51 108 -136 241
-207 324 -26 30 -48 61 -48 68 0 7 21 32 48 56 l47 43 68 -37 c37 -20 80 -47
95 -61z m-1387 -78 c4 -105 -2 -367 -9 -374 -5 -5 -22 -11 -38 -14 -64 -11
-112 -27 -177 -60 -38 -19 -72 -32 -77 -29 -4 3 -11 20 -14 39 -8 44 -65 96
-106 96 -15 0 -48 8 -72 19 -25 10 -63 21 -87 25 -23 3 -51 12 -61 19 -19 13
-18 15 13 44 138 128 346 228 522 249 28 4 51 7 52 8 1 1 13 2 27 4 22 1 26
-3 27 -26z m249 2 c133 -29 254 -85 378 -172 65 -46 81 -69 35 -51 -32 12 -83
-5 -83 -28 0 -10 9 -14 33 -12 56 5 61 -9 17 -46 -22 -18 -56 -39 -75 -45 -38
-13 -78 -60 -69 -83 8 -21 -41 -57 -70 -51 -13 2 -50 18 -81 34 -31 17 -63 30
-71 30 -21 0 -17 18 6 25 34 11 70 105 40 105 -16 0 -90 -49 -91 -60 -1 -6 -3
-14 -4 -20 -1 -5 -3 -15 -4 -20 -1 -10 -13 -9 -98 6 -18 4 -33 11 -34 18 -4
37 -4 373 -1 384 5 14 65 9 172 -14z m880 -70 c33 -41 60 -77 60 -79 0 -16
-14 -34 -23 -28 -7 4 -8 0 -2 -13 4 -10 7 -27 7 -36 -1 -21 36 -34 51 -19 6 6
15 11 19 11 10 0 41 -60 93 -176 33 -73 40 -100 37 -137 -3 -38 -8 -46 -25
-49 -16 -2 -23 -14 -32 -53 -8 -40 -14 -50 -30 -50 -18 0 -20 6 -17 62 2 57 0
64 -29 92 -35 36 -53 30 -63 -19 -3 -17 -12 -30 -20 -30 -19 0 -29 29 -15 46
9 11 6 16 -14 23 -14 6 -45 31 -69 57 -24 26 -60 54 -80 63 -24 10 -58 43 -97
93 -34 43 -61 80 -61 82 0 8 234 236 242 236 4 0 35 -34 68 -76z m-1916 -172
c18 -21 18 -22 -26 -84 -24 -35 -61 -90 -81 -123 -19 -33 -51 -77 -69 -97 -18
-20 -44 -49 -58 -65 -14 -16 -36 -38 -51 -48 -44 -35 -79 -94 -69 -120 11 -30
5 -35 -46 -35 -42 0 -44 1 -54 41 -19 70 -31 90 -46 78 -10 -9 -15 -7 -20 5
-3 9 -12 16 -20 16 -19 0 -18 3 16 114 54 178 125 315 240 466 l62 81 101
-104 c56 -57 110 -113 121 -125z m1574 -78 c12 -8 22 -20 22 -26 0 -7 -4 -7
-13 1 -15 12 -37 -3 -37 -26 0 -14 -37 -17 -65 -7 -14 6 -11 12 16 40 37 38
45 40 77 18z m70 -89 c27 -43 27 -49 2 -42 -24 6 -25 -1 -3 -25 18 -21 14 -31
-10 -22 -31 12 -60 97 -40 117 13 14 29 6 51 -28z m-816 -79 c4 -5 2 -16 -3
-22 -9 -11 -3 -99 8 -117 8 -13 48 -25 53 -16 11 16 51 -4 66 -32 8 -16 18
-29 23 -29 5 0 12 -16 15 -35 8 -40 21 -52 41 -35 10 8 18 8 33 -1 19 -12 19
-13 1 -44 -17 -29 -18 -34 -4 -45 20 -17 20 -60 0 -60 -24 0 -92 -37 -98 -53
-4 -10 2 -15 21 -15 15 0 52 -10 82 -22 30 -13 65 -23 77 -24 11 0 19 -4 17
-8 -2 -4 0 -10 6 -13 6 -4 1 -14 -12 -25 l-23 -19 37 -15 c21 -9 47 -16 58
-16 12 0 18 -4 15 -10 -3 -5 -15 -10 -26 -10 -11 0 -32 -14 -46 -31 -19 -22
-33 -30 -50 -26 -31 6 -29 -5 6 -24 20 -12 30 -27 34 -50 6 -41 -3 -53 -34
-44 -21 7 -21 9 -6 20 18 13 23 40 9 49 -9 5 -38 11 -108 22 l-42 6 -11 -52
c-6 -28 -11 -73 -11 -101 0 -62 -13 -68 -137 -67 -218 2 -396 136 -465 349
l-22 68 24 21 c13 11 20 23 17 27 -4 4 2 16 12 27 11 12 21 28 23 36 3 14 -1
15 -49 18 -13 1 -23 8 -23 16 0 24 45 81 65 81 28 0 48 -31 40 -62 -5 -21 -3
-24 10 -19 22 8 46 -16 34 -35 -6 -11 -13 -11 -26 -3 -14 9 -21 6 -35 -12 -21
-26 -23 -48 -4 -41 7 3 18 1 23 -4 6 -6 24 3 49 25 21 20 42 36 47 36 14 0 7
30 -8 31 -29 3 -33 4 -42 12 -4 5 8 7 27 5 19 -1 36 2 38 7 1 6 -4 10 -10 10
-7 0 -14 11 -16 25 -4 24 -3 25 12 5 16 -20 16 -20 31 0 13 17 13 21 0 34 -13
13 -11 17 13 33 51 33 57 37 94 53 31 14 57 49 49 64 -2 2 4 8 13 13 9 5 14
13 11 19 -4 5 1 19 9 31 12 16 13 25 4 35 -8 10 -6 19 8 35 26 29 1 14 -57
-34 -52 -43 -88 -48 -134 -18 l-29 19 66 30 c102 47 190 58 210 27z m-799 -34
c30 -29 34 -63 12 -102 -8 -14 -15 -36 -15 -50 -1 -44 -41 -103 -78 -112 -42
-11 -36 -33 9 -34 55 -1 57 -2 69 -40 7 -20 22 -40 36 -46 13 -6 21 -14 19
-18 -2 -4 -59 -8 -126 -9 -97 -2 -121 1 -117 11 3 7 17 48 33 91 21 59 25 81
17 89 -9 9 -12 6 -12 -13 0 -14 -6 -34 -14 -45 -13 -17 -14 -14 -5 25 5 24 18
65 29 90 10 25 26 71 34 101 28 102 51 115 109 62z m2134 -227 c7 22 15 52 19
68 11 46 22 40 29 -15 4 -29 9 -62 11 -73 2 -11 7 -53 10 -92 5 -58 4 -73 -7
-74 -8 -1 -60 -2 -117 -3 -88 -1 -103 1 -108 16 -6 21 21 88 36 88 6 0 10 15
8 37 -3 33 1 40 34 62 23 15 42 38 50 60 l13 36 5 -75 5 -75 12 40z m-2385 31
c11 7 7 -43 -16 -176 -3 -14 -5 -29 -5 -33 -1 -4 -22 -7 -47 -6 -62 4 -71 26
-48 123 21 83 43 110 80 95 14 -5 30 -6 36 -3z m-1197 -300 c-12 -36 -13 -107
-4 -174 13 -92 26 -123 27 -63 1 70 32 139 63 141 4 0 23 -34 43 -75 37 -76
56 -94 56 -52 0 47 15 47 38 -1 13 -26 34 -60 47 -77 24 -28 25 -29 25 -7 0
38 17 24 24 -20 4 -24 15 -52 25 -63 9 -11 25 -47 35 -80 27 -92 76 -223 109
-294 72 -154 220 -376 325 -489 6 -7 12 -16 12 -20 0 -4 -56 -62 -124 -130
l-124 -122 -51 56 c-255 279 -469 698 -545 1065 -3 13 -7 33 -9 44 -7 34 -16
88 -22 130 -3 22 -7 54 -10 70 -2 17 -7 62 -11 102 -5 64 -4 72 13 75 29 6 62
-3 58 -16z m1175 3 c4 -8 11 -41 14 -74 19 -164 95 -357 198 -499 27 -38 52
-74 54 -80 2 -6 -47 -62 -109 -124 -131 -131 -126 -131 -180 -12 -16 36 -36
73 -45 83 -11 12 -12 17 -2 17 9 0 8 7 -4 25 -15 23 -15 27 -1 41 20 20 19 91
-1 140 -13 30 -16 82 -18 254 -1 118 -5 220 -9 227 -5 8 3 13 25 15 54 5 70 2
78 -13z m261 10 c130 0 154 -3 165 -17 10 -13 16 -14 38 -4 24 11 26 10 31
-16 18 -85 70 -212 110 -268 14 -19 8 -27 -126 -160 -77 -76 -142 -141 -144
-142 -2 -2 -24 23 -49 55 -112 142 -207 407 -197 551 1 7 5 11 10 8 5 -3 78
-6 162 -7z m2215 -75 c-6 -81 -7 -85 -31 -187 -38 -159 -111 -340 -164 -407
-15 -19 -40 -57 -55 -85 -36 -66 -61 -95 -84 -100 -11 -2 -37 -12 -58 -23 -44
-22 -59 -19 -92 16 -22 23 -22 26 -7 35 9 5 29 7 44 4 46 -10 64 13 107 137
25 71 32 170 14 181 -17 11 -65 -35 -75 -73 -11 -40 -53 -69 -83 -57 -13 5
-10 10 18 27 34 19 120 127 120 149 0 21 64 130 82 140 10 5 18 21 18 34 0 18
5 25 19 25 29 0 83 26 114 54 23 22 26 28 16 49 -6 14 -22 31 -36 38 -22 12
-40 41 -57 96 -6 19 -2 20 95 21 l101 1 -6 -75z m445 63 c6 -47 -9 -185 -31
-301 -42 -217 -152 -487 -265 -653 l-23 -35 -21 57 c-12 30 -21 60 -21 66 0 6
-10 9 -22 7 -15 -2 -25 -13 -31 -33 -5 -16 -17 -57 -28 -91 -18 -55 -18 -63
-4 -90 23 -45 18 -65 -34 -123 l-49 -55 -25 28 c-20 22 -24 34 -20 65 6 44 -9
58 -67 64 -17 2 -35 8 -40 13 -14 14 61 278 94 334 126 216 201 439 222 660 3
41 10 80 15 86 13 16 349 17 350 1z m465 -100 c-3 -61 -8 -123 -10 -137 -2
-14 -7 -54 -11 -90 -4 -35 -11 -74 -16 -87 -5 -13 -7 -23 -5 -23 9 0 -57 -232
-96 -340 -81 -222 -228 -482 -371 -652 -81 -98 -135 -158 -142 -158 -3 0 -67
62 -144 139 l-139 139 60 68 c161 185 277 373 361 584 28 70 66 189 74 229 2
13 6 28 9 33 7 10 33 161 40 228 3 30 7 64 9 75 2 11 4 37 4 57 1 26 6 38 19
40 9 2 95 5 191 6 l174 2 -7 -113z m-2646 -317 c71 -48 139 -77 219 -93 77
-16 90 -35 61 -90 -17 -31 -17 -36 -3 -57 12 -18 13 -27 4 -47 -10 -21 -9 -28
1 -34 11 -7 11 -9 0 -9 -8 0 -10 -5 -5 -12 4 -7 8 -24 9 -38 1 -14 3 -29 4
-35 9 -38 0 -44 -48 -38 -44 5 -49 3 -59 -20 -10 -20 -18 -25 -40 -22 -55 7
-169 47 -248 86 -76 37 -236 148 -243 168 -5 14 271 289 283 283 6 -3 35 -22
65 -42z m652 -73 c-14 -15 -18 -27 -12 -37 5 -8 5 -19 0 -25 -4 -5 -10 -23
-12 -40 -2 -24 -12 -34 -48 -53 -57 -29 -84 -26 -88 11 -2 15 -8 27 -13 27
-10 0 -12 -11 -10 -50 2 -18 -10 -35 -43 -62 -25 -21 -47 -38 -49 -38 -3 0 -5
10 -5 23 -1 12 -2 62 -3 110 -2 94 8 121 36 97 8 -7 15 -23 15 -37 0 -30 29
-42 46 -19 12 16 15 15 36 -18 23 -36 45 -46 53 -23 12 32 11 85 -2 110 -12
24 -12 28 2 34 9 3 21 1 28 -6 15 -15 42 -14 57 4 7 8 17 15 23 15 6 0 1 -10
-11 -23z m307 -171 c9 -10 5 -20 -16 -43 -40 -43 -80 -67 -88 -53 -10 16 5 90
18 91 7 1 19 1 29 0 9 -1 19 3 23 9 9 14 20 13 34 -4z m-1119 -226 c85 -43
210 -86 293 -101 70 -13 83 -23 45 -35 -13 -3 -35 -15 -49 -25 -14 -10 -48
-23 -75 -29 -77 -16 -124 -40 -124 -63 0 -11 -9 -35 -21 -53 l-20 -34 30 -32
c16 -18 28 -34 26 -36 -8 -8 -143 40 -231 83 -102 49 -193 109 -302 197 l-72
59 122 123 122 122 96 -72 c52 -39 124 -86 160 -104z m-1031 26 c15 -8 37 -13
47 -10 15 4 45 -21 124 -100 58 -58 112 -106 120 -106 8 0 -14 -29 -50 -65
-36 -35 -69 -64 -75 -64 -13 0 -128 144 -191 239 -51 75 -124 203 -124 214 0
4 27 -16 61 -44 33 -27 73 -57 88 -64z m2237 77 c6 -34 4 -39 -32 -70 -51 -43
-139 -87 -185 -92 -6 0 -25 -16 -41 -33 -30 -32 -33 -33 -120 -34 -120 -2
-117 17 12 66 52 20 115 47 140 60 59 30 175 107 190 125 19 23 29 18 36 -22z
m-449 -109 c-5 -6 -166 -34 -190 -34 -17 0 -18 1 -1 18 9 9 38 24 63 32 40 14
51 14 89 2 24 -8 41 -16 39 -18z m-1270 -197 c43 -18 112 -56 153 -84 225
-151 553 -263 771 -263 34 0 39 -3 39 -22 1 -13 2 -53 3 -89 1 -46 -1 -65 -9
-62 -7 2 -21 -25 -34 -69 -33 -112 -41 -120 -103 -113 -153 18 -310 54 -457
107 -78 27 -334 154 -363 178 -7 6 -40 30 -73 53 -58 40 -125 93 -199 159
l-30 27 110 105 c61 58 111 106 112 106 1 0 37 -15 80 -33z m-67 -470 c119
-79 303 -171 435 -217 119 -42 341 -92 417 -94 15 0 15 -2 0 -29 -43 -75 -53
-96 -68 -147 -9 -30 -17 -56 -19 -58 -1 -1 -19 5 -41 14 -50 21 -134 21 -179
0 -19 -9 -35 -19 -35 -22 0 -6 67 -66 86 -77 7 -4 44 -9 82 -11 71 -4 92 -10
92 -26 0 -12 -63 -4 -190 26 -379 88 -736 272 -1031 532 -43 37 -80 73 -83 80
-3 8 43 62 117 136 l122 123 95 -80 c52 -44 142 -112 200 -150z m2492 107 c46
-44 107 -106 136 -137 l53 -56 -38 -34 c-94 -83 -203 -162 -378 -275 -24 -15
-219 -112 -261 -130 -121 -50 -350 -119 -454 -137 -114 -20 -153 -26 -225 -31
-44 -3 -87 -8 -95 -10 -8 -3 -3 7 13 21 15 14 27 34 28 43 0 9 2 25 4 35 4 21
5 22 -35 -8 -40 -29 -55 -32 -45 -7 4 9 9 28 11 41 3 13 15 44 28 70 23 45 30
74 27 116 -1 19 -3 18 -21 -5 l-20 -25 0 53 c0 50 1 52 28 53 75 3 253 38 379
75 101 29 106 29 159 4 38 -19 45 -19 82 -7 71 25 231 119 276 162 24 23 59
69 79 102 35 57 160 177 177 171 5 -2 46 -39 92 -84z m-1117 -3 c0 -33 2 -35
52 -49 28 -8 66 -27 85 -42 l33 -28 -21 -29 c-42 -58 -39 -68 26 -93 19 -7 38
-16 43 -20 6 -5 -128 -42 -198 -54 -35 -6 -118 -17 -158 -21 -31 -3 -38 -1
-33 11 16 42 17 93 3 120 -14 27 -16 27 -22 9 -29 -86 -65 -152 -74 -137 -7
12 -7 339 0 346 2 2 49 7 104 11 55 4 101 8 103 10 1 1 15 2 30 1 24 -1 27 -5
27 -35z"/>
<path d="M4580 4833 c0 -5 12 -20 26 -34 24 -21 26 -22 16 -3 -13 25 -42 50
-42 37z"/>
<path d="M4655 4710 c-3 -5 -12 -7 -20 -3 -37 14 -8 -33 71 -114 52 -54 67
-64 74 -53 14 22 12 34 -12 95 -17 41 -31 59 -55 70 -36 17 -50 19 -58 5z"/>
<path d="M3205 4019 c-16 -17 -46 -37 -66 -45 -54 -22 -95 -103 -45 -90 13 3
38 1 56 -6 32 -11 35 -10 72 33 56 64 71 95 58 119 -15 28 -40 24 -75 -11z"/>
<path d="M5250 6247 c0 -2 34 -39 76 -83 41 -43 130 -151 197 -239 67 -88 174
-213 237 -278 109 -112 297 -273 307 -263 8 7 -74 251 -110 328 -83 174 -201
304 -358 391 -62 35 -349 153 -349 144z"/>
<path d="M1550 6161 c-257 -110 -375 -195 -477 -346 -60 -90 -76 -126 -127
-290 -26 -82 -51 -161 -57 -174 -12 -29 -11 -28 96 64 38 33 86 73 105 90 91
77 179 176 300 341 135 182 164 218 252 312 27 28 44 52 36 52 -7 0 -65 -23
-128 -49z"/>
<path d="M5960 5874 c103 -110 114 -138 205 -479 31 -115 70 -248 86 -294 16
-46 28 -86 25 -88 -2 -2 -19 22 -37 54 -54 95 -135 178 -268 276 -199 146
-237 177 -287 229 -28 29 -63 71 -78 93 -31 48 -32 42 -5 -55 62 -227 135
-321 429 -555 150 -120 273 -240 325 -318 21 -31 40 -57 42 -57 2 0 1 5 -3 12
-4 6 -6 144 -5 307 1 164 -3 329 -9 370 -33 237 -203 452 -435 552 -16 7 -34
15 -40 18 -5 3 19 -27 55 -65z"/>
<path d="M970 5861 c-199 -98 -347 -294 -375 -493 -5 -29 -10 -64 -11 -78 -2
-14 -3 -79 -3 -145 1 -66 2 -204 3 -307 1 -104 3 -188 7 -188 3 0 24 27 47 59
64 91 146 176 267 274 314 256 442 436 470 662 5 40 5 40 -43 -35 -51 -79
-111 -134 -311 -285 -157 -118 -233 -199 -305 -325 -21 -36 -36 -58 -33 -49 3
9 23 74 46 146 22 71 61 216 86 321 59 254 89 324 183 424 24 26 41 48 36 47
-5 0 -34 -13 -64 -28z"/>
<path d="M6444 5438 c54 -122 71 -262 53 -438 -14 -143 -21 -261 -20 -395 0
-149 11 -343 20 -360 4 -7 3 -7 -4 0 -6 6 -18 44 -28 85 -10 41 -29 104 -43
140 -46 120 -82 161 -423 481 -19 19 -52 55 -74 82 -21 26 -39 46 -41 44 -6
-5 34 -144 63 -222 51 -138 96 -213 273 -455 175 -240 228 -334 265 -474 l19
-68 37 148 c20 82 60 211 88 288 69 184 84 262 85 421 1 189 -21 307 -84 458
-32 78 -152 269 -189 301 -21 19 -21 19 3 -36z"/>
<path d="M513 5418 c-36 -40 -107 -154 -154 -248 -30 -61 -73 -195 -85 -266
-12 -72 -10 -308 3 -379 14 -80 22 -105 93 -305 88 -246 119 -355 111 -385 -2
-7 1 -7 7 0 5 6 17 37 27 70 22 81 92 223 157 320 30 44 103 152 163 240 114
168 170 274 204 390 22 73 52 200 46 194 -1 -2 -20 -26 -41 -54 -21 -27 -105
-115 -187 -195 -224 -218 -306 -340 -332 -491 -3 -19 -8 -42 -11 -51 -3 -9 -7
-26 -9 -39 -11 -57 -15 -22 -8 77 13 185 7 465 -12 562 -8 46 -18 156 -20 237
-2 112 15 217 49 290 13 30 24 55 22 55 -1 0 -12 -10 -23 -22z"/>
<path d="M6793 4483 c-2 -134 -28 -244 -95 -408 -127 -307 -148 -368 -192
-550 -47 -192 -70 -267 -60 -191 3 21 8 48 12 60 3 11 7 76 8 142 3 98 -1 136
-17 194 -20 73 -66 177 -115 260 -15 25 -37 63 -50 85 -12 22 -45 78 -73 125
-28 47 -65 119 -82 160 -17 41 -34 77 -36 80 -5 5 4 -161 12 -220 10 -80 21
-143 41 -235 28 -128 36 -158 112 -415 l76 -255 0 -166 -1 -166 126 166 c69
91 156 207 194 256 103 137 153 253 201 470 21 93 24 136 24 282 0 127 -5 192
-18 245 -21 92 -52 188 -59 188 -3 0 -7 -48 -8 -107z"/>
<path d="M171 4512 c-21 -78 -50 -198 -55 -232 -7 -46 -8 -285 0 -330 32 -203
78 -357 137 -461 20 -35 95 -138 167 -229 72 -91 155 -200 184 -243 30 -44 57
-74 61 -68 3 6 4 15 1 20 -11 18 -8 256 4 306 6 28 13 57 15 65 2 8 22 80 45
160 74 258 115 433 141 605 11 73 24 302 16 295 -3 -3 -17 -36 -31 -74 -15
-38 -70 -145 -123 -239 -160 -282 -206 -418 -205 -602 1 -55 3 -109 6 -120 2
-11 9 -40 15 -65 5 -24 9 -46 7 -47 -7 -7 -36 89 -61 202 -42 187 -61 245
-154 465 -138 323 -153 378 -153 533 0 53 -1 97 -3 97 -3 0 -9 -17 -14 -38z"/>
<path d="M6129 3643 c-41 -104 -85 -274 -94 -359 -3 -27 -7 -65 -10 -84 -2
-19 -7 -69 -10 -110 -3 -41 -8 -88 -10 -105 -2 -16 -7 -64 -10 -105 -11 -140
-15 -173 -31 -285 -17 -115 -63 -263 -110 -357 -14 -27 -21 -48 -18 -48 12 0
488 322 569 385 156 121 272 258 368 435 37 68 92 220 101 280 3 19 8 46 10
59 6 26 9 140 6 216 l-1 50 -28 -86 c-49 -151 -115 -253 -285 -434 -220 -235
-238 -257 -381 -460 -108 -153 -120 -161 -64 -49 70 143 90 229 90 387 0 70
-2 131 -5 135 -2 4 -7 29 -10 56 -4 27 -9 52 -10 55 -2 3 -7 29 -10 56 -4 28
-9 57 -11 65 -13 41 -31 211 -30 278 1 28 0 52 -2 52 -2 0 -8 -12 -14 -27z"/>
<path d="M851 3554 c-1 -44 -10 -130 -21 -190 -10 -60 -21 -122 -24 -139 -3
-16 -10 -55 -16 -85 -7 -30 -13 -107 -15 -170 -6 -168 23 -293 99 -435 21 -37
35 -69 33 -71 -2 -2 -41 49 -87 113 -90 127 -170 230 -216 278 -181 191 -293
313 -336 366 -57 71 -120 194 -142 279 l-15 55 -1 -60 c-5 -198 11 -302 68
-441 84 -206 201 -351 420 -521 113 -87 572 -391 572 -379 0 2 -18 43 -40 91
-22 47 -47 107 -55 132 -17 50 -52 245 -59 333 -3 30 -8 80 -11 110 -3 30 -8
73 -10 95 -17 163 -27 254 -30 275 -2 14 -7 48 -10 75 -10 75 -51 233 -79 306
l-25 64 0 -81z"/>
<path d="M5823 2867 c-164 -229 -188 -275 -305 -606 -118 -332 -178 -450 -291
-571 -26 -28 -47 -52 -47 -55 0 -2 12 0 28 5 22 8 284 67 372 84 23 4 88 18
150 31 286 60 635 324 810 615 60 100 133 291 117 306 -3 3 -23 -23 -45 -58
-45 -70 -134 -165 -214 -228 -65 -52 -188 -124 -398 -232 -248 -128 -307 -166
-448 -285 -69 -59 -103 -71 -56 -21 206 221 261 335 314 651 11 66 23 134 25
151 21 126 29 161 51 235 14 45 24 85 21 87 -2 2 -40 -47 -84 -109z"/>
<path d="M1080 2938 c0 -2 9 -26 20 -55 10 -28 21 -62 24 -75 2 -13 11 -57 19
-98 9 -41 18 -91 21 -110 3 -19 10 -57 15 -85 6 -27 12 -63 15 -80 35 -225
109 -394 226 -515 3 -3 34 -37 70 -74 62 -66 63 -68 25 -46 -22 13 -74 49
-115 80 -138 104 -200 141 -428 257 -125 64 -256 134 -292 156 -127 78 -234
181 -308 296 -44 69 -47 61 -15 -39 64 -196 209 -402 391 -553 226 -187 342
-238 707 -306 116 -22 243 -47 283 -56 40 -9 75 -15 77 -13 2 2 -19 28 -46 57
-112 120 -170 232 -280 540 -81 227 -124 322 -195 437 -72 115 -214 302 -214
282z"/>
<path d="M5380 2228 c-75 -56 -183 -152 -313 -278 -291 -282 -331 -316 -432
-368 -51 -27 -261 -101 -321 -114 -10 -2 4 -8 31 -12 28 -4 172 -34 320 -66
376 -81 393 -84 550 -84 154 -1 202 5 301 35 254 79 499 266 619 474 l29 50
-57 -52 c-83 -75 -239 -163 -317 -178 -8 -2 -34 -8 -58 -15 -24 -6 -57 -13
-73 -15 -17 -2 -42 -6 -57 -9 -29 -6 -88 -12 -197 -22 -38 -3 -81 -7 -95 -9
-14 -2 -56 -7 -95 -10 -38 -3 -88 -9 -110 -12 -22 -2 -51 -6 -65 -8 -14 -2
-38 -6 -55 -9 -16 -2 -50 -8 -75 -11 -25 -4 -52 -9 -62 -10 -9 -2 -38 -6 -65
-10 -43 -5 -37 -2 52 33 116 45 157 65 205 101 94 70 148 144 236 321 40 81
94 185 119 230 25 46 44 84 42 86 -1 1 -27 -16 -57 -38z"/>
<path d="M1590 2184 c18 -32 71 -130 117 -218 104 -196 130 -235 210 -312 70
-67 148 -110 263 -145 142 -43 114 -46 -100 -11 -69 12 -156 24 -195 27 -38 3
-86 8 -105 10 -19 2 -75 7 -125 11 -49 3 -103 7 -120 9 -279 22 -468 83 -605
194 -88 71 -87 71 -63 31 73 -118 219 -261 346 -339 171 -105 328 -151 532
-156 172 -5 256 7 565 82 229 55 280 66 348 76 19 3 36 7 38 10 2 2 -33 14
-78 26 -213 59 -342 129 -483 262 -33 31 -74 70 -91 85 -17 16 -80 74 -140
130 -155 143 -191 175 -259 225 -89 68 -92 68 -55 3z"/>
</g>
</svg>
