<?xml version="1.0" encoding="UTF-8" standalone="no"?>
<!-- Creator: CorelDRAW X6 -->

<svg
   xmlns:dc="http://purl.org/dc/elements/1.1/"
   xmlns:cc="http://creativecommons.org/ns#"
   xmlns:rdf="http://www.w3.org/1999/02/22-rdf-syntax-ns#"
   xmlns:svg="http://www.w3.org/2000/svg"
   xmlns="http://www.w3.org/2000/svg"
   xmlns:sodipodi="http://sodipodi.sourceforge.net/DTD/sodipodi-0.dtd"
   xmlns:inkscape="http://www.inkscape.org/namespaces/inkscape"
   xml:space="preserve"
   width="5in"
   height="1.552in"
   version="1.1"
   style="clip-rule:evenodd;fill-rule:evenodd;image-rendering:optimizeQuality;shape-rendering:geometricPrecision;text-rendering:geometricPrecision"
   viewBox="0 0 5000 1552"
   id="svg2"
   inkscape:version="0.91 r13725"
   sodipodi:docname="sespl logo.svg"><metadata
     id="metadata38"><rdf:RDF><cc:Work
         rdf:about=""><dc:format>image/svg+xml</dc:format><dc:type
           rdf:resource="http://purl.org/dc/dcmitype/StillImage" /><dc:title></dc:title></cc:Work></rdf:RDF></metadata><sodipodi:namedview
     pagecolor="#ffffff"
     bordercolor="#666666"
     borderopacity="1"
     objecttolerance="10"
     gridtolerance="10"
     guidetolerance="10"
     inkscape:pageopacity="0"
     inkscape:pageshadow="2"
     inkscape:window-width="1861"
     inkscape:window-height="1056"
     id="namedview36"
     showgrid="false"
     fit-margin-top="0"
     fit-margin-left="0"
     fit-margin-right="0"
     fit-margin-bottom="0"
     inkscape:zoom="0.86041667"
     inkscape:cx="-35.044437"
     inkscape:cy="19.62002"
     inkscape:window-x="59"
     inkscape:window-y="24"
     inkscape:window-maximized="1"
     inkscape:current-layer="svg2" /><defs
     id="defs4"><style
       type="text/css"
       id="style6"><![CDATA[
    .fil6 {fill:#2B2A29;fill-rule:nonzero}
    .fil2 {fill:#00A0E3;fill-rule:nonzero}
    .fil4 {fill:#5B5B5B;fill-rule:nonzero}
    .fil5 {fill:#E31E24;fill-rule:nonzero}
    .fil1 {fill:#EF7F1A;fill-rule:nonzero}
    .fil0 {fill:#423185;fill-rule:nonzero}
    .fil3 {fill:#59993A;fill-rule:nonzero}
   ]]></style></defs><g
     id="Layer_x0020_1"
     transform="translate(-1755,-4166)"><metadata
       id="CorelCorpID_0Corel-Layer" /><path
       class="fil0"
       d="m 3809,4213 -104,39 0,92 -51,0 0,85 51,0 0,228 c 0,47 12,82 35,109 23,25 58,37 103,37 46,0 79,-5 103,-12 l 0,-97 c -22,14 -46,21 -70,21 -25,0 -42,-7 -51,-21 -11,-13 -15,-35 -15,-68 l 0,-198 121,0 0,-85 -121,0 0,-131 z"
       id="path10"
       inkscape:connector-curvature="0"
       style="fill:#423185;fill-rule:nonzero" /><path
       class="fil1"
       d="m 3615,4355 c -16,-11 -44,-16 -77,-16 -44,0 -82,16 -109,47 l 0,-39 -98,0 0,429 98,0 0,-243 c 0,-32 9,-58 26,-78 17,-21 37,-32 61,-32 21,0 42,7 58,17 l 40,-85 z"
       id="path12"
       inkscape:connector-curvature="0"
       style="fill:#ef7f1a;fill-rule:nonzero" /><path
       class="fil2"
       d="m 2719,4372 c -26,-30 -66,-44 -115,-44 -24,0 -47,4 -70,12 -24,10 -42,22 -55,36 -31,-33 -75,-48 -134,-48 -45,0 -82,15 -110,48 l -22,-40 -71,0 0,453 104,0 0,-325 c 7,-11 17,-22 33,-33 16,-9 30,-14 44,-14 23,0 43,7 56,19 14,14 22,31 22,52 l 0,301 103,0 0,-327 c 5,-11 16,-22 32,-31 13,-9 28,-14 45,-14 50,0 78,30 78,89 l 0,283 104,0 0,-298 c 0,-50 -13,-89 -42,-118 z"
       id="path14"
       inkscape:connector-curvature="0"
       style="fill:#00a0e3;fill-rule:nonzero" /><path
       class="fil3"
       d="m 2005,4450 28,-80 c -38,-21 -80,-32 -126,-32 -45,0 -80,11 -108,32 -30,22 -44,51 -44,89 0,57 37,101 113,132 33,14 57,26 68,37 13,11 19,25 19,43 -1,27 -21,42 -59,42 -38,0 -73,-13 -103,-36 l -35,81 c 26,14 49,25 67,30 16,5 39,7 68,7 51,1 92,-11 121,-34 30,-24 46,-56 46,-97 0,-28 -8,-56 -26,-78 -16,-22 -43,-40 -82,-55 -37,-15 -61,-27 -74,-36 -11,-9 -15,-20 -16,-30 0,-31 16,-44 51,-44 39,1 71,11 93,30 z"
       id="path16"
       inkscape:connector-curvature="0"
       style="fill:#59993a;fill-rule:nonzero" /><path
       class="fil4"
       d="m 4290,4355 c -26,-9 -48,-14 -72,-14 -69,0 -124,20 -162,62 -38,40 -59,94 -59,163 0,68 19,120 58,160 37,38 85,58 143,58 60,0 112,-13 150,-40 l -30,-63 c -34,26 -68,40 -102,40 -44,0 -79,-14 -104,-40 -24,-26 -36,-63 -36,-114 0,-50 12,-89 36,-118 24,-30 57,-44 98,-44 20,0 38,3 58,11 19,7 33,14 40,22 l 37,-55 c -12,-9 -32,-19 -57,-27 z"
       id="path18"
       inkscape:connector-curvature="0"
       style="fill:#5b5b5b;fill-rule:nonzero" /><path
       class="fil5"
       d="m 3210,4649 0,-94 c 0,-82 -15,-140 -45,-169 -31,-30 -79,-45 -144,-45 -48,0 -89,8 -124,25 l 21,78 c 26,-12 58,-19 96,-19 63,0 95,25 95,75 -16,-4 -30,-5 -40,-5 -70,0 -124,13 -161,42 -37,30 -56,69 -56,119 0,40 12,73 38,97 27,23 65,35 110,35 26,0 48,-4 70,-15 24,-9 42,-22 49,-35 4,12 12,23 23,34 11,11 24,16 38,16 15,0 26,-1 37,-4 10,-4 20,-13 27,-27 -24,-14 -36,-50 -36,-107 z m -139,-79 0,0 c 9,2 22,3 39,7 l 0,40 c 0,60 -30,90 -90,90 -45,0 -69,-19 -67,-57 0,-54 38,-80 117,-80 z"
       id="path20"
       inkscape:connector-curvature="0"
       style="fill:#e31e24;fill-rule:nonzero" /><path
       class="fil4"
       d="m 4523,4638 0,-472 -77,0 0,484 c 0,87 49,131 150,131 l 0,-69 c -22,0 -39,-7 -54,-20 -14,-14 -20,-32 -20,-55 z"
       id="path22"
       inkscape:connector-curvature="0"
       style="fill:#5b5b5b;fill-rule:nonzero" /><path
       class="fil4"
       d="m 5009,4669 0,-153 c 0,-62 -14,-108 -42,-136 -28,-30 -73,-44 -136,-44 -23,0 -49,4 -74,14 -27,8 -47,17 -61,30 l 33,63 c 26,-26 61,-39 110,-39 62,0 93,35 93,105 -20,-7 -37,-10 -55,-11 -58,1 -107,17 -145,46 -39,30 -58,68 -58,112 0,35 12,67 37,92 25,24 55,36 87,36 63,-1 110,-20 141,-57 7,21 17,34 33,44 16,8 39,12 70,12 l 0,-37 c -23,-13 -34,-37 -34,-77 z m -259,-12 0,0 c 0,-28 13,-51 38,-72 23,-20 55,-30 93,-30 11,0 28,4 51,8 l 0,105 c -30,37 -63,56 -103,55 -52,1 -80,-21 -80,-66 z"
       id="path24"
       inkscape:connector-curvature="0"
       style="fill:#5b5b5b;fill-rule:nonzero" /><path
       class="fil4"
       d="m 5357,4437 22,-71 c -47,-20 -86,-30 -118,-30 -42,0 -77,10 -101,30 -27,20 -38,48 -38,84 0,14 1,26 5,38 5,11 13,22 21,33 9,11 20,21 31,28 13,8 36,20 71,37 46,20 69,44 69,73 0,39 -23,59 -70,59 -26,0 -61,-14 -103,-42 l -27,72 c 38,23 82,34 127,34 48,-1 87,-12 114,-32 26,-24 40,-52 40,-92 0,-30 -8,-54 -24,-73 -13,-21 -38,-37 -72,-54 l -55,-24 c -32,-14 -46,-36 -46,-62 -2,-14 3,-25 17,-33 11,-8 27,-13 47,-13 30,0 61,13 90,36 z"
       id="path26"
       inkscape:connector-curvature="0"
       style="fill:#5b5b5b;fill-rule:nonzero" /><path
       class="fil4"
       d="m 5695,4433 22,-72 c -48,-20 -86,-30 -118,-30 -43,0 -77,10 -101,30 -27,21 -39,49 -39,84 0,14 2,27 7,39 4,11 11,22 20,33 9,10 20,21 31,27 13,8 36,21 72,37 45,21 69,44 69,74 0,38 -24,59 -70,59 -27,1 -63,-13 -105,-43 l -26,73 c 38,23 82,34 128,34 47,-2 85,-12 113,-32 27,-24 40,-54 40,-92 0,-31 -8,-54 -23,-74 -15,-20 -40,-37 -72,-52 l -55,-24 c -33,-15 -49,-37 -49,-62 0,-14 7,-25 21,-33 11,-9 26,-13 45,-14 32,1 62,14 92,37 z"
       id="path28"
       inkscape:connector-curvature="0"
       style="fill:#5b5b5b;fill-rule:nonzero" /><path
       class="fil6"
       d="m 1781,5235 0,-303 233,0 0,28 -202,0 0,106 187,0 0,28 -187,0 0,112 202,0 0,28 -233,0 z m 470,-303 c 34,0 61,2 78,6 18,4 33,11 46,21 16,13 28,29 36,49 8,20 12,45 12,74 0,29 -4,54 -12,74 -8,20 -20,37 -37,50 -13,10 -28,17 -46,21 -18,4 -44,6 -78,6 l -110,0 0,-303 110,0 z m -7,27 -73,0 0,247 80,0 c 26,0 47,-1 62,-4 15,-3 27,-8 38,-15 14,-10 25,-23 32,-40 7,-17 10,-39 10,-65 0,-25 -3,-46 -10,-63 -7,-17 -18,-30 -32,-40 -10,-7 -23,-12 -38,-15 -15,-3 -38,-4 -68,-4 z m 308,-27 31,0 0,186 c 0,33 8,57 24,73 16,15 42,23 77,23 35,0 61,-8 77,-23 16,-15 25,-40 25,-72 l 0,-186 31,0 0,194 c 0,38 -11,67 -34,87 -23,20 -55,30 -98,30 -43,0 -76,-10 -98,-30 -22,-20 -34,-49 -34,-88 l 0,-192 z m 661,99 c -6,-25 -18,-44 -37,-57 -19,-13 -43,-20 -73,-20 -40,0 -71,12 -94,35 -23,23 -34,55 -34,95 0,39 11,71 33,94 22,23 52,35 89,35 31,0 57,-8 78,-25 21,-17 35,-39 41,-67 l 32,0 c -7,37 -24,67 -51,89 -27,22 -60,33 -100,33 -47,0 -84,-14 -112,-43 -28,-29 -42,-68 -42,-116 0,-50 14,-88 42,-117 28,-28 67,-43 117,-43 39,0 71,9 96,28 25,19 40,45 45,79 l -31,0 z m 212,81 139,0 -69,-155 -70,155 z m -87,123 140,-303 35,0 138,303 -31,0 -42,-94 -166,0 -43,94 -31,0 z m 506,0 0,-275 -117,0 0,-28 264,0 0,28 -117,0 0,275 -30,0 z m 258,0 0,-303 30,0 0,303 -30,0 z m 479,-151 c 0,49 -14,88 -43,117 -28,28 -67,43 -117,43 -50,0 -88,-14 -117,-43 -28,-28 -42,-67 -42,-117 0,-50 14,-88 42,-117 28,-28 67,-43 117,-43 49,0 88,14 117,43 28,28 43,67 43,117 z m -159,130 c 40,0 71,-12 94,-35 23,-23 34,-55 34,-95 0,-41 -11,-72 -34,-95 -23,-23 -54,-35 -94,-35 -40,0 -72,12 -94,35 -23,23 -34,55 -34,95 0,41 11,72 34,95 23,23 54,35 94,35 z m 288,21 0,-303 39,0 212,272 0,-272 29,0 0,303 -40,0 -210,-272 0,272 -29,0 z m 478,-123 139,0 -69,-155 -70,155 z m -87,123 140,-303 35,0 138,303 -31,0 -42,-94 -166,0 -43,94 -31,0 z m 424,0 0,-303 30,0 0,274 190,0 0,28 -221,0 z"
       id="path30"
       inkscape:connector-curvature="0"
       style="fill:#2b2a29;fill-rule:nonzero" /><path
       class="fil6"
       d="m 4488,5598 c 3,3 6,6 10,10 4,3 9,6 14,9 5,3 11,5 18,6 7,2 14,2 23,2 16,0 28,-4 36,-11 8,-7 12,-17 12,-28 0,-5 -1,-10 -2,-14 -2,-4 -4,-8 -7,-12 -3,-4 -8,-8 -13,-11 -5,-4 -11,-8 -18,-13 -14,-9 -24,-18 -32,-28 -8,-10 -11,-21 -11,-36 0,-9 2,-18 5,-25 4,-8 9,-14 15,-20 7,-6 15,-10 24,-13 9,-3 19,-5 31,-5 15,0 28,2 38,6 11,4 20,10 26,17 l -7,23 c -4,-3 -7,-7 -11,-9 -4,-3 -8,-5 -12,-7 -4,-2 -9,-3 -14,-5 -5,-1 -11,-2 -17,-2 -14,0 -25,3 -33,9 -8,6 -12,14 -12,25 0,5 1,9 2,13 2,4 4,8 7,11 3,4 7,7 12,11 5,4 10,7 17,11 8,5 14,10 20,14 6,5 10,10 14,15 4,5 7,11 9,17 2,6 3,13 3,21 0,10 -2,19 -5,27 -3,8 -8,15 -14,21 -6,6 -15,10 -24,14 -10,3 -21,5 -34,5 -10,0 -20,-1 -28,-3 -8,-2 -16,-4 -22,-7 -6,-3 -12,-6 -16,-9 -4,-3 -8,-6 -10,-9 l 6,-24 z m 197,47 -31,0 43,-162 30,-1 -8,30 1,0 c 3,-4 7,-8 12,-12 5,-4 10,-7 16,-10 6,-3 12,-6 19,-7 7,-2 14,-3 21,-3 15,0 25,3 31,8 6,5 9,13 9,23 l 1,0 c 3,-4 6,-7 11,-11 4,-4 9,-7 15,-10 6,-3 12,-5 19,-7 7,-2 14,-3 21,-3 9,0 16,1 21,3 6,2 10,5 13,9 3,4 5,8 5,14 0,5 0,11 -2,17 l -32,122 -31,0 32,-118 c 2,-8 2,-15 0,-20 -2,-5 -9,-7 -18,-7 -6,0 -12,1 -18,4 -6,2 -12,5 -18,9 -6,4 -11,8 -15,14 -5,5 -8,11 -10,17 l -28,102 -31,0 32,-118 c 2,-8 2,-15 0,-20 -2,-5 -8,-8 -17,-8 -6,0 -12,1 -18,4 -7,2 -13,6 -19,10 -6,4 -12,9 -17,15 -5,6 -8,12 -9,18 l -26,98 z m 259,-35 c 0,-15 5,-27 16,-35 11,-8 25,-15 44,-19 7,-2 14,-3 20,-5 6,-2 12,-4 17,-6 5,-2 9,-5 12,-7 3,-3 5,-6 6,-9 l 1,-5 c 2,-9 1,-15 -4,-18 -5,-4 -14,-5 -27,-5 -9,0 -18,1 -27,3 -8,2 -16,5 -24,9 l 4,-20 c 7,-4 15,-7 25,-9 10,-2 21,-3 33,-3 20,0 33,4 42,11 8,8 10,20 6,37 l -23,87 c -1,5 -1,9 1,11 2,3 5,4 9,4 3,0 6,0 8,-1 3,-1 5,-2 6,-3 l -4,15 c -2,2 -5,4 -9,6 -4,2 -8,2 -14,2 -9,0 -15,-2 -19,-6 -4,-4 -5,-10 -4,-16 l -1,0 c -5,7 -12,12 -20,16 -8,4 -17,6 -28,6 -16,0 -28,-3 -35,-10 -8,-7 -11,-16 -11,-28 z m 108,-59 c -4,6 -17,12 -38,19 -6,2 -11,3 -16,5 -5,2 -9,4 -13,7 -4,3 -7,6 -9,10 -2,4 -3,9 -3,16 0,3 0,6 1,9 1,3 2,5 4,8 2,2 5,4 8,5 4,1 8,2 14,2 3,0 7,-1 11,-2 4,-1 8,-3 11,-5 4,-2 7,-5 10,-9 3,-3 5,-7 6,-11 l 14,-54 z m 126,-69 -9,33 2,0 c 3,-5 6,-9 10,-14 4,-4 8,-8 12,-11 4,-3 9,-6 14,-7 5,-2 9,-3 14,-3 5,0 9,0 12,1 3,1 5,2 6,3 l -7,25 c -4,-3 -9,-4 -16,-4 -5,0 -11,1 -17,4 -6,3 -11,7 -17,11 -5,5 -10,10 -14,17 -4,6 -7,13 -9,20 l -23,87 -31,0 43,-162 30,-1 z m 93,20 -23,0 5,-16 24,-3 8,-30 34,-14 -11,43 45,0 -5,19 -45,0 -28,104 c -2,8 -2,14 1,17 3,4 8,5 16,5 6,0 12,-1 18,-3 6,-2 11,-4 14,-7 l -6,20 c -3,2 -8,5 -15,7 -7,2 -15,3 -24,3 -15,0 -25,-4 -32,-11 -6,-7 -8,-17 -4,-31 l 27,-105 z m 300,120 -7,23 -147,0 57,-231 34,0 -51,209 114,0 z m 127,-127 c -6,0 -12,1 -18,4 -6,2 -11,6 -16,10 -5,4 -10,10 -14,16 -4,6 -8,13 -10,20 l 84,0 c 2,-6 2,-11 2,-17 0,-5 0,-9 -1,-13 -1,-4 -2,-7 -4,-10 -2,-3 -5,-5 -9,-7 -4,-2 -8,-2 -14,-2 z m 32,133 c -3,2 -6,4 -9,7 -4,2 -8,4 -13,6 -5,2 -11,4 -17,5 -6,1 -13,2 -21,2 -21,0 -38,-6 -50,-17 -12,-11 -18,-27 -18,-48 0,-14 2,-27 7,-40 5,-13 12,-24 20,-33 9,-9 19,-17 30,-23 12,-6 24,-8 38,-8 10,0 19,1 26,4 7,2 13,6 17,11 4,5 8,10 9,17 2,6 3,14 3,22 0,3 -1,8 -2,14 -1,6 -3,11 -4,15 l -113,0 c -1,4 -1,7 -2,11 0,4 -1,8 -1,12 0,8 1,15 3,21 2,6 5,10 9,14 4,3 9,6 14,7 5,2 12,2 18,2 6,0 12,-1 18,-2 6,-2 11,-3 16,-6 5,-2 10,-5 14,-8 4,-3 8,-6 11,-8 l -6,24 z m 34,-19 c 0,-15 5,-27 16,-35 11,-8 25,-15 44,-19 7,-2 14,-3 20,-5 6,-2 12,-4 17,-6 5,-2 9,-5 12,-7 3,-3 5,-6 6,-9 l 1,-5 c 2,-9 1,-15 -4,-18 -5,-4 -14,-5 -27,-5 -9,0 -18,1 -27,3 -8,2 -16,5 -24,9 l 4,-20 c 7,-4 15,-7 25,-9 10,-2 21,-3 33,-3 20,0 33,4 42,11 8,8 10,20 6,37 l -23,87 c -1,5 -1,9 1,11 2,3 5,4 9,4 3,0 6,0 8,-1 3,-1 5,-2 6,-3 l -4,15 c -2,2 -5,4 -9,6 -4,2 -8,2 -14,2 -9,0 -15,-2 -19,-6 -4,-4 -5,-10 -4,-16 l -1,0 c -5,7 -12,12 -20,16 -8,4 -17,6 -28,6 -16,0 -28,-3 -35,-10 -8,-7 -11,-16 -11,-28 z m 108,-59 c -4,6 -17,12 -38,19 -6,2 -11,3 -16,5 -5,2 -9,4 -13,7 -4,3 -7,6 -9,10 -2,4 -3,9 -3,16 0,3 0,6 1,9 1,3 2,5 4,8 2,2 5,4 8,5 4,1 8,2 14,2 3,0 7,-1 11,-2 4,-1 8,-3 11,-5 4,-2 7,-5 10,-9 3,-3 5,-7 6,-11 l 14,-54 z m 126,-69 -9,33 2,0 c 3,-5 6,-9 10,-14 4,-4 8,-8 12,-11 4,-3 9,-6 14,-7 5,-2 9,-3 14,-3 5,0 9,0 12,1 3,1 5,2 6,3 l -7,25 c -4,-3 -9,-4 -16,-4 -5,0 -11,1 -17,4 -6,3 -11,7 -17,11 -5,5 -10,10 -14,17 -4,6 -7,13 -9,20 l -23,87 -31,0 43,-162 30,-1 z m 121,0 -8,29 1,0 c 8,-9 18,-16 29,-22 11,-6 24,-9 39,-9 9,0 16,1 22,3 6,2 10,5 13,10 3,4 4,9 5,15 0,6 -1,12 -3,20 l -31,117 -31,0 32,-118 c 2,-8 2,-15 0,-20 -2,-5 -8,-7 -18,-7 -6,0 -13,1 -20,4 -7,3 -14,6 -20,11 -6,5 -12,10 -17,16 -5,6 -8,13 -10,20 l -25,95 -31,0 43,-162 30,-1 z m 161,-42 c 0,-5 2,-8 5,-11 3,-3 7,-5 13,-5 5,0 9,2 12,5 3,3 5,7 5,11 0,5 -2,9 -5,12 -3,3 -7,5 -12,5 -5,0 -10,-2 -13,-5 -3,-3 -5,-7 -5,-12 z m 23,42 -43,163 -31,0 42,-162 31,-1 z m 76,0 -8,29 1,0 c 8,-9 18,-16 29,-22 11,-6 24,-9 39,-9 9,0 16,1 22,3 6,2 10,5 13,10 3,4 4,9 5,15 0,6 -1,12 -3,20 l -31,117 -31,0 32,-118 c 2,-8 2,-15 0,-20 -2,-5 -8,-7 -18,-7 -6,0 -13,1 -20,4 -7,3 -14,6 -20,11 -6,5 -12,10 -17,16 -5,6 -8,13 -10,20 l -25,95 -31,0 43,-162 30,-1 z m 167,235 c -24,0 -43,-3 -57,-9 -14,-6 -21,-16 -21,-29 0,-4 1,-8 2,-11 2,-3 3,-6 6,-9 2,-2 5,-5 8,-6 3,-2 5,-3 8,-4 l 19,1 c -4,2 -8,5 -11,9 -3,4 -5,9 -5,14 0,3 1,7 3,10 2,3 5,6 9,8 4,2 10,4 17,5 7,1 15,2 25,2 19,0 34,-2 46,-7 11,-5 17,-12 17,-22 0,-4 -1,-7 -2,-10 -2,-3 -4,-5 -8,-6 -4,-2 -9,-3 -15,-3 -6,-1 -14,-1 -23,-2 -9,-1 -18,-1 -25,-2 -8,-1 -14,-2 -19,-5 -5,-2 -9,-5 -12,-9 -3,-4 -4,-8 -4,-14 0,-11 3,-19 9,-24 6,-5 14,-9 22,-10 l 0,-1 c -6,-4 -10,-10 -14,-16 -3,-6 -5,-14 -5,-22 0,-8 2,-16 5,-24 3,-8 8,-15 14,-21 6,-6 14,-11 23,-15 9,-4 20,-6 33,-6 20,0 36,6 46,17 l 4,0 c 2,-5 6,-9 11,-13 5,-3 11,-5 17,-5 5,0 9,1 11,2 3,1 5,3 6,4 l -6,19 c -2,-1 -4,-2 -6,-3 -2,-1 -5,-1 -8,-1 -5,0 -9,1 -12,3 -4,2 -6,4 -9,7 3,6 4,14 4,22 0,7 -2,15 -5,22 -3,7 -8,14 -14,20 -6,6 -14,11 -23,15 -9,4 -20,6 -33,6 l -4,0 c -4,0 -8,0 -13,0 -5,0 -9,0 -12,0 -5,0 -9,1 -13,3 -4,2 -6,6 -6,11 0,3 1,5 2,7 1,2 4,3 7,4 3,1 7,2 12,2 5,0 11,1 18,1 12,1 23,2 32,4 9,2 17,4 23,7 6,3 10,7 13,13 3,5 4,12 4,20 0,8 -2,15 -5,21 -4,7 -9,12 -16,17 -7,5 -17,8 -28,11 -11,3 -25,4 -40,4 z m 72,-192 c 0,-10 -2,-18 -7,-23 -5,-5 -12,-8 -22,-8 -7,0 -14,1 -19,4 -5,3 -10,7 -14,11 -4,5 -7,10 -9,17 -2,6 -3,13 -3,21 0,20 9,30 28,30 7,0 14,-1 19,-4 6,-3 10,-7 14,-11 4,-5 7,-10 9,-17 2,-6 3,-13 3,-20 z m 111,-111 26,0 -44,171 -23,0 40,-171 z m -56,218 c 0,-5 2,-8 5,-11 3,-3 7,-4 11,-4 5,0 8,1 11,4 3,3 4,7 4,11 0,5 -1,9 -4,11 -3,3 -7,4 -11,4 -5,0 -8,-1 -11,-4 -3,-3 -5,-7 -5,-11 z"
       id="path32"
       inkscape:connector-curvature="0"
       style="fill:#2b2a29;fill-rule:nonzero" /><path
       class="fil6"
       d="m 5792,4357 0,-105 -39,0 0,-14 95,0 0,14 -39,0 0,105 -16,0 z m 71,0 0,-119 24,0 28,84 c 3,8 5,14 6,18 1,-4 3,-11 6,-19 l 29,-83 21,0 0,119 -15,0 0,-100 -35,100 -14,0 -35,-102 0,102 -15,0 z"
       id="path34"
       inkscape:connector-curvature="0"
       style="fill:#2b2a29;fill-rule:nonzero" /></g></svg>